<?xml version="1.0" encoding="UTF-8"?>
<svg id="Layer_2" data-name="Layer 2" xmlns="http://www.w3.org/2000/svg" viewBox="0 0 171.26 47">
  <defs>
    <style>
      .cls-1 {
        fill: none;
      }

      .cls-2 {
        fill: #d0cecf;
      }
    </style>
  </defs>
  <g id="Layer_1-2" data-name="Layer 1">
    <g>
      <path class="cls-1" d="M124.7,16.19h.01V0h-21.02c.1,5.99,1.95,11.55,5.07,16.19h15.94Z"/>
      <path class="cls-1" d="M130.14,17.8v29.2h20.19c0-.31.04-.62.04-.93,0-13.12-8.46-24.25-20.22-28.27Z"/>
      <path class="cls-1" d="M46.56,17.54v29.46h21c0-.31.04-.62.04-.93,0-13.42-8.85-24.75-21.03-28.53Z"/>
      <path class="cls-1" d="M41.13,16.19V0h-20.22c.1,5.99,1.95,11.55,5.07,16.19h15.15Z"/>
      <path class="cls-1" d="M82.78,16.19V0h-20.74c.1,5.99,1.95,11.55,5.07,16.19h15.67Z"/>
      <path class="cls-1" d="M171.26,16.19V0h-25.64c.1,5.99,1.95,11.55,5.07,16.19h20.57Z"/>
      <path class="cls-1" d="M88.48,17.62v29.38h20.73c0-.31.04-.62.04-.93,0-13.32-8.72-24.59-20.77-28.45Z"/>
      <path class="cls-2" d="M41.92,16.49v-.3H0v.3c14.51,2.06,25.66,14.51,25.67,29.58,0,.31-.03.62-.04.93h20.93v-29.46c-1.5-.46-3.05-.82-4.63-1.05Z"/>
      <path class="cls-2" d="M83.59,16.49v-.3h-41.66v.3c1.59.23,3.14.58,4.63,1.05,12.18,3.78,21.03,15.11,21.03,28.53,0,.31-.03.62-.04.93h20.93v-29.38c-1.58-.51-3.21-.89-4.9-1.13Z"/>
      <path class="cls-2" d="M124.7,16.49v-.3h-41.12v.3c1.68.24,3.32.62,4.9,1.13,12.05,3.86,20.77,15.12,20.77,28.45,0,.31-.03.62-.04.93h20.93v-29.2c-1.75-.6-3.57-1.04-5.44-1.31Z"/>
      <path class="cls-2" d="M130.14,16.19h-5.44v.3c1.88.27,3.7.71,5.44,1.31,11.76,4.02,20.22,15.15,20.22,28.27,0,.31-.03.62-.04.93h20.93v-30.81h-41.12Z"/>
      <path class="cls-2" d="M130.14,16.19h20.55c-3.12-4.64-4.97-10.2-5.07-16.19h-20.91v16.19h5.43Z"/>
      <path class="cls-2" d="M83.59,16.19h25.17c-3.12-4.64-4.97-10.2-5.07-16.19h-20.91v16.19h.81Z"/>
      <path class="cls-2" d="M41.92,16.19h25.18c-3.12-4.64-4.97-10.2-5.07-16.19h-20.91v16.19h.8Z"/>
      <path class="cls-2" d="M25.98,16.19c-3.12-4.64-4.97-10.2-5.07-16.19H0v16.19h25.98Z"/>
    </g>
  </g>
</svg>