<?xml version="1.0" encoding="UTF-8"?>
<svg id="Layer_2" data-name="Layer 2" xmlns="http://www.w3.org/2000/svg" viewBox="0 0 898.6 898.6">
  <defs>
    <style>
      .cls-1 {
        fill: #fff;
      }
    </style>
  </defs>
  <g id="Layer_1-2" data-name="Layer 1">
    <g>
      <path class="cls-1" d="M127.86,719.78c51.83-46.68,119.45-71.82,172.31-117.4,56.92-49.08,90.52-118.48,146.37-168.32,54.07-48.26,124.84-74.89,178.85-123.85,54.01-48.96,87.48-115.91,141.83-164.86,38.9-35.03,87.41-58.12,131.38-86.97v-9.77c-46.54,31.61-98.29,55.59-140.37,93.73-53.7,48.67-86.91,115.5-141.32,164.38-53.27,47.86-123.96,74.29-177.36,122.34-55.44,49.88-88.49,118.88-145.83,167.86-53.99,46.12-122.07,72.01-174.85,119.85-45.84,41.55-76.93,95.98-118.87,141.83v12.55c46.18-47.25,78.34-106.78,127.86-151.38Z"/>
      <path class="cls-1" d="M118.86,704.79c55.54-47.9,125.62-74.17,180.36-124.34,44.24-40.55,74.07-95.94,115.33-139.41,59.16-62.34,141.58-89.87,203.84-147.81,52.55-48.91,85.13-115.7,139.83-162.87,43.04-37.11,94.65-59.93,140.38-92.56v-10.09c-1.39,1.03-2.77,2.07-4.18,3.08-46.89,33.61-100.76,56.93-144.19,95.58-54.02,48.08-87.08,114.68-140.32,163.38-58.56,53.57-136.17,81.02-192.88,136.79-39.57,38.92-67.43,88.15-104.83,128.93-63.32,69.05-154.36,96.11-219.29,162.33-34.61,35.28-60.86,78.14-92.91,115.74v12.32c40.94-45.74,71.99-100.65,118.86-141.07Z"/>
      <path class="cls-1" d="M28.01,891.64c44.49-46.86,75.52-105.35,124.83-147.89,53.45-46.11,121.46-71.72,173.85-118.85,58-52.19,92.58-124.67,153.35-174.32,54.49-44.52,121.7-70.87,173.32-119.39,52.02-48.9,84.58-115.07,138.83-161.87,32.5-28.04,70.09-48.49,106.41-70.82v-9.45c-38.63,23.89-79.09,45.14-113.38,75.27-54.48,47.88-86.27,113.98-140.83,163.86-54.56,49.88-126.15,76.42-180.85,125.85-51.26,46.32-83.73,108.65-133.33,156.38-49.37,47.5-113.75,72.9-167.26,114.46-63.17,49.06-98.75,117.96-155.2,173.72h13.4c2.32-2.28,4.61-4.6,6.85-6.96Z"/>
      <path class="cls-1" d="M101.88,696.8c57.1-51.85,134.22-78.79,189.35-132.33,47.42-46.06,78.66-106.42,127.33-151.39,54.89-50.71,127.11-77.17,182.36-127.33,53.85-48.88,87.05-115.01,140.32-163.38,46.08-41.85,104.09-66.25,153.77-102.97,1.2-.89,2.4-1.79,3.59-2.69V6.5c-54.32,42.06-117.84,67.02-169.36,115.88-51.96,49.27-84.42,115.48-139.37,162.32-54.95,46.84-124.15,73.33-177.31,122.39-50.13,46.26-82.14,110.14-132.33,156.38-49.75,45.83-114.39,70.94-166.84,112.88-46.56,37.23-77.19,85.16-113.39,130.23v14.36c34.06-40.51,62.61-88.48,101.88-124.14Z"/>
      <path class="cls-1" d="M144.84,727.76c54.48-46.14,122.26-71.7,175.85-120.85,51-46.77,80.52-108.63,134.84-157.87,54.32-49.24,125.52-75.74,179.85-124.85,54.02-48.82,87.35-115.35,140.83-163.86,36.53-33.13,80.86-55.52,122.39-81.76v-9.69c-3.81,2.51-7.66,5-11.56,7.46-39.62,25-78.13,44.63-113.82,75.99-53.66,47.16-86.13,112.41-137.83,160.87-50.11,46.96-115.24,72.98-168.32,115.4-65.42,52.27-100.14,128.04-163.35,182.3-52.17,44.78-117.55,69.89-169.86,115.86-51.85,45.56-85.09,108.69-133.86,156.96v11.2c54.18-50.77,88.17-119.17,144.84-167.18Z"/>
      <path class="cls-1" d="M184.9,739.86c48.54-36.35,105.33-60.26,151.24-100.51,58.32-51.12,92.97-122.82,152.36-173.32,45.15-38.39,100.8-62.23,147.78-97.97,75.68-57.59,112.07-145.78,187.98-202.63,23.49-17.59,49.08-32.11,74.34-47.13v-9.57c-31.41,18.91-63.42,36.91-91.87,60.15-61.53,50.24-95.97,122.43-154.36,175.31-53.45,48.41-125.94,76.08-177.85,122.85s-83.6,109.99-135.32,158.38c-51.72,48.39-117.68,73.67-171.83,117.88-54.07,44.15-87.25,105.26-134.11,155.31h11.1c47.26-52.27,82.24-115.07,140.54-158.74Z"/>
      <path class="cls-1" d="M92.89,681.81c52.6-47.46,124.06-73.31,175.85-119.85,55.45-49.83,89.14-118.9,144.83-167.86,51.32-45.12,116.96-70.68,169.32-115.4,58.27-49.78,92.68-120.18,149.36-171.32,47.65-42.99,109.61-68.35,160.37-107.38h-13.62c-50.14,36.39-108.47,61.57-154.73,103.38-54.42,49.2-87.94,117.04-143.37,166.32-54.25,48.23-124.4,74.23-178.31,123.39-55.69,50.78-89.2,121.63-147.83,169.86-52.58,43.25-118.74,68.65-169.86,114.86-32.97,29.8-58.01,66.6-84.9,101.73v13.07c30.01-37.66,56.64-78.09,92.89-110.8Z"/>
      <path class="cls-1" d="M170.81,773.73c54.86-49.91,126.85-75.96,181.85-125.85,54.95-49.85,88.92-119.36,145.83-167.86,52.72-44.93,119.52-70.46,170.85-116.86,58.85-53.2,93.41-125.91,155.36-176.31,22.99-18.7,48.47-33.74,73.9-48.84v-9.62c-30.72,18.29-61.47,36.59-88.42,59.92-58.14,50.35-92.06,122.31-150.36,172.32-51.92,44.54-117.25,70.49-169.32,115.4-55.9,48.21-89.8,116.61-144.32,166.37-52.68,48.08-121.51,73.7-175.37,120.34-45.19,39.13-75.43,91.19-114.14,135.86h11.41c34.36-41.31,63.98-89.62,102.73-124.87Z"/>
      <path class="cls-1" d="M73.4,676.31c56.2-53.42,131.94-79.58,188.86-131.82,53.11-48.75,85.69-115.81,140.32-163.38,55.17-48.04,124.69-73.9,178.85-123.85,50.15-46.25,82.44-109.11,131.84-155.87,44.22-41.85,100.7-66.99,150.16-101.39h-14.32c-44.66,29.37-93.97,52.5-133.84,88.41-53.95,48.58-87.28,114.48-140.32,163.38-54.31,50.07-124.49,75.79-179.36,124.34-56.92,50.37-90.72,120.91-148.82,170.86-52.31,44.97-119.39,69.51-170.86,115.85-29.1,26.2-52.42,57.36-75.91,88.41v13.96c23.4-30.52,45.4-62.28,73.4-88.89Z"/>
      <path class="cls-1" d="M819.18,203.29c-56.93,50.72-91.12,121.75-149.36,171.32-52.94,45.05-119.5,70.64-171.32,117.39-55.42,49.99-89.74,119.42-145.83,167.86-53.02,45.78-120.5,71.21-172.86,117.85-35.21,31.37-59.65,68.74-88.5,105.31-4.14,5.25-8.35,10.45-12.62,15.58h10.98c31.74-39.81,59.19-83.24,98.14-116.89,54.11-46.74,122.83-72.55,175.85-120.85,54.37-49.52,87.05-116.87,143.83-165.86,56.78-48.99,128.46-75.65,182.84-127.84,47.84-45.93,79.38-106.81,127.84-151.88,24.36-22.66,52.16-40.45,80.43-57.6v-9.68c-27.83,16.58-55.26,33.77-79.42,55.3Z"/>
      <path class="cls-1" d="M67.91,657.84c57.13-51.54,131.56-76.8,187.35-130.33,49.08-47.08,80.84-109.52,131.33-155.38,60.12-54.61,136.89-80.38,195.86-139.81,45.67-46.04,76.38-105.22,124.82-148.91,37.62-33.95,83.4-56.34,125.69-83.41h-15.35c-35.41,21.84-72.55,41.34-104.79,67.97-62.58,51.68-97.93,127.51-159.35,180.31-54.31,46.7-123.3,72.01-176.85,121.85-49.61,46.16-81.38,109.36-131.33,155.38-51.83,47.74-117.8,72.28-171.83,116.89-28.11,23.2-51.38,51.48-73.45,80.64v14.05c21.01-27.85,41.91-55.8,67.91-79.25Z"/>
      <path class="cls-1" d="M686.84,382.66c-53.22,48.05-122.67,73.6-176.36,121.34-53.12,47.24-86.36,113.22-138.32,161.38-55.36,51.3-128.56,77.56-184.36,128.33-33.9,30.84-59.4,68.93-87.41,104.89h11c23.16-30.34,44.7-62.27,72.03-89.29,53.94-53.33,124.4-79.08,181.69-127,58.71-49.11,93.04-119.16,149.36-170.32,55.45-50.37,126.75-76.25,181.85-126.85,53-48.69,86.01-114.54,139.83-162.87,19.18-17.22,40.57-31.36,62.45-44.81v-9.63c-25.1,15.35-49.6,31.57-71.44,51.45-53.27,48.46-86.46,114.77-140.32,163.38Z"/>
      <path class="cls-1" d="M201.1,549.27c87.01-61.81,123.14-156.93,210.16-218.41,46.01-32.51,99.05-55.65,141.19-93.58,55.55-50.01,89.46-117.96,144.83-167.86,31.52-28.4,68.45-48.04,104.21-69.42h-16.02c-26.14,15.28-52.49,30.01-76.68,48.96-71.98,56.39-108.49,143-181.42,198.2-51.19,38.74-110.54,63.17-158.77,106.96-56.05,50.9-89.75,122.17-148.82,170.86-46.48,38.31-103.04,61.36-150.34,98.41-23.98,18.78-48,44.43-69.44,70.93v14.33c7.07-9.49,14.27-18.86,21.99-27.81,55.77-64.58,113.28-84.81,179.11-131.58Z"/>
      <path class="cls-1" d="M709.81,384.66c-57.27,56.07-134.85,82.89-193.35,137.32-53.75,50.01-87.22,117.4-143.83,165.86-54.18,46.38-122.98,71.95-175.85,120.85-29.05,26.88-50.95,58.85-74.66,89.91h10.38c16.18-21.92,32.04-44.26,50.29-63.95,66.73-71.99,160.03-98.58,226.31-170.29,41.1-44.46,70.99-97.88,116.36-139.39,53.47-48.92,123.46-74.32,177.31-122.39,57.54-51.37,92.15-122.63,150.9-172.77,14.1-12.04,29.31-22.53,44.93-32.44v-9.59c-22.01,13.88-43.31,28.78-62.46,46.49-48.25,44.63-79.41,104.46-126.33,150.39Z"/>
      <path class="cls-1" d="M50.47,627.41c54.02-46.52,122.45-71.39,175.82-119.88,50.95-46.29,83.16-110.65,133.33-157.38,54.99-51.22,127.78-77.17,182.85-126.85,55.88-50.42,89.86-120.62,146.82-169.86,24.37-21.06,51.63-37.29,78.94-53.44h-16.1c-25.52,15.3-50.55,31.29-72.83,51.46-57.57,52.12-92.18,124.93-152.36,174.31-51.42,42.19-115.52,67.06-165.32,111.41-57.56,51.25-91.92,122.78-150.83,172.85-48.62,41.32-108.44,64.39-157.33,104.41-19.28,15.77-37.12,34.24-53.46,53.65v13.34c15.41-19.33,31.71-37.87,50.47-54.02Z"/>
      <path class="cls-1" d="M698.77,417.57c-51.76,42.32-115.89,67.01-165.32,112.4-62.32,57.23-98.08,133.26-166.9,184.75-49.02,36.67-107,60.58-152.78,101.96-27.11,24.5-49.06,53.13-70.92,81.92h10.36c19.04-25.38,38.33-50.59,61.57-71.93,52.86-48.54,121.69-74.24,175.85-120.85,55.77-47.99,90-114.38,142.83-164.86,52.83-50.48,123.69-76.22,178.85-123.85,55.13-47.61,88.38-115.47,141.32-164.38,14-12.94,29.21-24.31,44.98-34.9v-9.98c-15.95,10.43-31.34,21.64-45.47,34.41-58.39,52.76-93.04,125.18-154.36,175.31Z"/>
      <path class="cls-1" d="M714.28,427.09c-50.91,43.55-116.83,68.32-166.86,112.86-56.92,50.68-91.53,121.29-148.82,170.86-54.07,46.79-122.85,72.63-175.85,120.85-21.95,19.97-40.71,43.18-58.79,66.94h10.41c22.01-28.07,45.19-54.89,73.92-77.38,49.4-38.66,108.83-63.06,156.32-104.42,55.67-48.47,89.66-116.79,143.83-166.86,51.26-47.39,120.52-72.99,173.85-118.85,59.91-51.51,94.73-125.16,155.36-176.31,6.76-5.7,13.77-11.1,20.95-16.27v-10.09c-12.93,9.02-25.38,18.68-37.01,29.3-55.47,50.66-89.39,119.83-147.31,169.37Z"/>
      <path class="cls-1" d="M40.49,613.43c47.94-40.85,107.29-64.55,156.79-103.95,64.5-51.35,98.85-126.95,160.35-180.31,53.71-46.6,122.16-72.32,174.85-119.85,52.85-47.68,86.05-114.83,138.83-162.87,19.92-18.13,41.8-32.69,64.21-46.45h-15.34c-21.11,13.46-41.48,27.98-59.86,45.45-52.99,50.36-85.82,117.58-142.37,165.32-54.7,46.18-123.15,71.61-176.31,121.39-52.04,48.74-84.26,114.53-138.83,161.87-52.38,45.45-118.56,70.57-170.86,115.86-10.88,9.42-21.7,20.35-31.95,31.8v12.93c12.49-14.67,25.77-28.64,40.49-41.19Z"/>
      <path class="cls-1" d="M854.64,288.68c-44.53,46.95-75.85,105.82-125.35,148.38-53.04,45.6-120.98,71.19-172.86,117.85-56.49,50.81-90.89,121.15-148.82,170.86-46.17,39.62-103.42,63.32-151.32,100.43-27.24,21.1-49.95,45.97-71.02,72.4h10.71c15.93-19.82,32.81-38.81,52.3-55.43,53.8-45.88,121.72-71.47,174.31-119.39,53.6-48.83,86.58-116.98,141.83-164.86,53.28-46.18,121.57-71.89,173.85-118.85,54.28-48.75,87.89-116.06,141.83-164.86,5.95-5.38,12.14-10.47,18.5-15.34v-10.25c-15.74,11.92-30.59,24.96-43.96,39.06Z"/>
      <path class="cls-1" d="M226.28,458.56c43.49-47.44,73.27-102.71,123.35-145.38,54.35-46.3,123.17-71.78,175.85-120.85,51.42-47.9,83.99-112.89,136.84-160.87,12.99-11.8,27.07-21.97,41.6-31.46h-14.71c-11.68,8.01-22.94,16.53-33.4,25.96-54.04,48.72-86.95,116.29-140.86,164.84-55.45,49.94-127.89,75.9-183.3,127.38-52.3,48.6-84.89,114.81-138.83,161.87-40.12,35.01-88.16,58.3-132.26,87.56-21.41,14.2-41.96,30.54-60.55,48.97v12.01c67.46-71.07,159.58-97.26,226.28-170.03Z"/>
      <path class="cls-1" d="M838.21,334.22c-29.84,37-55.5,77.68-90.94,109.86-55.31,50.22-127.71,76.46-182.85,126.85-54.1,49.43-87.28,117.89-142.83,165.86-47.16,40.72-105.89,64.82-154.76,102.99-22.22,17.36-41.6,37.43-59.54,58.82h10.57c9.69-11.59,19.83-22.75,30.88-32.96,54.93-50.79,127.49-76.91,182.85-126.85,33.73-30.44,57.9-66.86,85.5-102.31,19.52-25.06,39.15-48.07,63.32-68.55,51.58-43.71,116.53-68.81,167.86-113.86,54.31-47.67,87.26-114.27,139.83-162.87,3.42-3.16,6.93-6.23,10.5-9.22v-10.1c-21.98,18.53-41.91,39.41-60.39,62.33Z"/>
      <path class="cls-1" d="M754.27,461.06c-52.27,46.52-120.68,72.06-173.85,118.85-59.3,52.18-92.88,124.79-154.36,175.31-46.09,37.88-102.22,61.3-148.81,97.95-17.19,13.52-32.97,28.95-47.63,45.43h10.85c65.81-70.12,155.34-96.6,220.58-164.31,43.74-45.4,73.96-102.81,120.84-144.9,55.84-50.13,128.04-76.64,183.36-127.33,49.37-45.24,81.05-106.17,128.81-152.91,1.49-1.46,3.01-2.89,4.54-4.31v-10.86c-.83.74-1.68,1.46-2.5,2.22-53.77,49.15-87.34,116.37-141.83,164.86Z"/>
      <path class="cls-1" d="M190.82,470.05c50.86-45.95,82.95-108.93,132.36-156.35,52.47-50.37,122.42-75.77,177.33-122.37,62.62-53.14,97.02-129.46,160.35-181.31,4.26-3.48,8.63-6.8,13.07-10.02h-13.2c-69.43,55.74-103.95,136.3-173.32,191.21-51.43,40.71-113.92,65.64-162.75,109.98-53.88,48.92-87.1,115.38-140.83,163.86-56.99,51.42-126.25,76.56-183.83,128.05v10.62c1.64-1.63,3.3-3.25,4.98-4.83,54.74-51.55,129.6-78.02,185.84-128.84Z"/>
      <path class="cls-1" d="M891.6,324.66c-42.24,43.83-72.32,98.22-116.36,140.39-56.47,54.08-133.02,80.92-190.84,133.84-51.53,47.16-85.7,114.63-135.84,159.87s-115.25,70.54-167.32,113.4c-9.92,8.16-19.39,17.06-28.43,26.44h11.5c3.39-3.41,6.85-6.76,10.41-10,55.58-50.57,128.26-76.84,183.84-127.84,51.75-47.48,83.25-113.04,135.82-159.88,54.15-48.24,122.13-71.78,178.87-122.83,48.53-43.66,80.53-101.57,125.36-148.53v-11.9c-2.37,2.31-4.7,4.65-7,7.04Z"/>
      <path class="cls-1" d="M313.68,299.19c54.97-51.85,128.21-77.75,183.84-127.84,56.55-50.91,90.1-122.32,148.52-171.35h-12.23c-54.78,48.62-87.62,115.86-142.27,165.37-53.34,48.33-123.42,73.55-176.85,121.85-58.53,52.91-93.18,125.53-154.36,175.31-49.91,40.61-110.78,65.98-160.33,107.13v10.52c53.1-46.87,122.23-72.92,175.85-120.12,53.43-47.05,86.2-112.17,137.83-160.87Z"/>
      <path class="cls-1" d="M782.22,482.05c-60.11,54.89-140.2,81.78-197.84,140.82-42.09,43.12-71.05,97.33-114.36,139.38-40.16,39-89,62.36-135.27,92.5-20.09,13.09-39.21,27.68-56.85,43.85h11.39c1.3-1.16,2.62-2.31,3.94-3.45,52.91-45.36,120.4-70.66,172.31-117.4,58.3-52.48,92.11-126.6,153.92-175.75,51.61-41.04,114.02-66.16,163.77-109.96,45.18-39.78,75.88-92.38,115.37-137.31v-12.21c-9.62,10.17-18.77,20.79-27.46,31.65-29.26,36.57-53.96,75.95-88.92,107.88Z"/>
      <path class="cls-1" d="M306.16,282.69c55.73-50.85,128.61-77.17,184.36-128.33,43.25-39.68,71.23-91.7,110.36-134.39,6.42-7,13.14-13.63,20.08-19.97h-12.45c-47.01,46.4-78.14,107.4-127.98,152.37-52.19,47.09-120.53,72.77-173.85,118.85-60.13,51.97-94.86,126.73-156.36,177.31-46.06,37.88-101.88,61.42-148.78,97.97-.5.39-1.02.8-1.54,1.2v10.27c52.12-41.43,116.1-67.17,165.84-111.9,53.77-48.37,86.97-114.69,140.32-163.38Z"/>
      <path class="cls-1" d="M791.23,497.03c-47.95,43.26-108.93,67.9-159.76,106.97-71.12,54.66-105.9,138.11-176.02,193.61-47.86,37.87-105.25,62.09-152.35,100.99h13.21c50.36-39.43,111.29-64.05,159.23-106.87,53.09-47.43,85.04-111.88,136.32-160.38,54.84-51.87,129.94-78.35,186.35-129.33,34.26-30.97,58.67-69.03,86.94-104.87,4.39-5.56,8.87-11.06,13.45-16.49v-12.5c-36.27,42.7-65.64,91.21-107.37,128.86Z"/>
      <path class="cls-1" d="M809.21,504.01c-41.42,39.31-93.96,64.34-141.26,95.54-66.86,44.1-92.72,90.53-141.46,151.21-47.69,59.38-94.43,82.8-156.76,121.96-13,8.16-25.87,16.71-38.27,25.88h14.24c49.03-33.61,104.17-59.21,147.83-99.88,51.24-47.73,83.75-112.48,136.32-160.38,53.06-48.35,123.62-73.32,177.36-121.34,35.55-31.77,62.12-71.64,91.39-109.01v-13.37c-29.42,36.75-55.23,76.98-89.39,109.39Z"/>
      <path class="cls-1" d="M306.22,259.77c51.72-42.76,115.87-67.82,166.32-112.4,46.07-40.7,74.3-92.55,114.36-137.39,3.05-3.42,6.19-6.74,9.38-9.98h-10.76c-39.65,43.63-69.28,96.18-113,136.38-55.56,51.07-128.71,77.25-184.36,128.33-53.5,49.11-87.01,116.05-141.32,164.38-43.65,38.84-99.6,62.75-146.85,97v10.44c51.01-37.84,110.61-63.15,157.85-106.45,55.65-50.99,89.41-121.58,148.37-170.32Z"/>
      <path class="cls-1" d="M818.21,519.01c-54.16,49.64-123.45,75.08-178.31,122.39-59.5,51.31-93.65,124.91-153.9,175.77-37.85,31.96-83.44,54.13-124.9,81.43h15.69c42.13-26.75,86.8-49.58,123.73-82.89,52.7-47.55,85.8-114.41,138.32-162.38,49.99-45.66,113.11-69.92,165.83-111.89,37.81-30.1,65.24-68.38,93.93-105.75v-14.28c-25.53,33.64-49.4,69.2-80.39,97.61Z"/>
      <path class="cls-1" d="M280.19,259.72c54.98-51.11,127.82-77.23,183.36-127.33,43.15-38.93,71.41-89.24,109.35-132.39h-10.74c-36.17,43-65.7,93.34-108.61,130.4-50.88,43.94-115.32,68.74-166.32,112.4-58.31,49.92-91.88,118.94-147.36,169.32-42.09,38.21-93.68,61.76-139.87,93.24v9.95c46.3-32.49,97.71-55.34,140.87-93.21,54.14-47.51,87.04-113.77,139.32-162.38Z"/>
      <path class="cls-1" d="M826.19,534.98c-54.54,49.41-125.02,73.98-179.36,123.34-57.32,52.06-91.85,124.6-151.85,173.82-31.45,25.81-67.73,45.1-102.42,66.46h15.62c35.37-21.23,71.64-41.24,102.32-68.91,51.78-46.7,84.32-110.23,134.33-158.38,55.83-53.75,131.02-79.48,188.35-131.33,24.92-22.54,45.25-49.33,65.42-76.25v-13.83c-22.45,29.7-44.48,59.78-72.41,85.08Z"/>
      <path class="cls-1" d="M131.39,407.63c54-48.7,87.55-115.73,141.32-164.38,48.79-44.15,111.07-68.85,162.33-109.4,47.47-37.55,79.37-87.72,116.68-133.85h-10.81c-30.54,37.84-57.07,79.36-93.35,112.43-52.77,48.09-121.38,73.78-175.31,120.39-58.37,50.45-92.68,122.92-150.9,172.77-36.97,31.65-80.69,53.44-121.35,79.69v9.56c.36-.24.72-.49,1.08-.73,43.55-28.85,91.09-51.11,130.31-86.47Z"/>
      <path class="cls-1" d="M809.11,570.86c-42.27,30.96-90.89,52.12-132.26,84.52-71.96,56.38-108.51,143.03-181.42,198.2-22.48,17.01-46.61,30.77-70.59,45.02h16.75c27.8-16.61,55.32-33.69,78.91-54.92,55.41-49.87,89.22-117.53,144.32-167.37,54.54-49.35,125.76-74.29,180.36-124.34,19.96-18.3,37.02-39.04,53.43-60.33v-13.27c-7.12,9.57-14.34,19.05-21.96,28.16-20.31,24.29-41.95,45.59-67.53,64.33Z"/>
      <path class="cls-1" d="M280.25,214.84c49.21-38.53,108.38-62.87,155.78-103.97,37.51-32.53,63.02-72.72,93.48-110.87h-10.71c-25.66,32.9-48.44,67.7-79.23,96.44-53.06,49.53-122.6,75.34-177.31,122.39-57.54,49.49-91.54,118.64-147.36,169.32-34.93,31.71-76.32,51.88-114.9,76.04v10.36c34.64-22.05,70.87-40.3,103.36-65.97,70.18-55.46,106.25-138.44,176.89-193.74Z"/>
      <path class="cls-1" d="M843.16,565.94c-49.77,42.5-111.62,66.55-162.32,108.41-62.58,51.68-97.94,127.51-159.35,180.31-19.61,16.86-41.35,30.67-63.45,43.94h15.64c21.04-13.15,41.43-27.16,59.8-43.94,60.17-54.99,95.26-128.99,159.93-179.73,50.27-39.44,110.53-63.64,158.75-105.98,17.17-15.08,32.22-32.06,46.44-49.76v-12.66c-16.4,20.63-35.43,42.32-55.44,59.4Z"/>
      <path class="cls-1" d="M246.22,220.76c55.42-51.21,128.59-77.48,184.36-128.33,30-27.36,53.52-60.3,78.03-92.43h-10.97c-26.3,34.31-49.07,67.12-83.57,95.89-49.99,41.67-111.92,66.25-161.33,108.4-64.21,54.77-99.59,132.57-166.36,185.29-27.04,21.34-57.07,37.71-86.37,55.44v9.89c35.94-21.86,72.95-42.17,104.9-69.76,55.13-47.61,88.38-115.47,141.32-164.38Z"/>
      <path class="cls-1" d="M246.27,197.83c45.48-38.81,101.82-62.38,149.24-98.51,36.82-28.06,64.71-63.25,92.16-99.32h-10.54c-19.94,26.19-40.11,52.21-64.54,74.45-52.92,48.19-121.84,73.92-175.85,120.85-52.58,45.69-84.84,108.94-134.32,157.38-30.29,29.66-66.28,51.53-102.42,73.16v9.33c33.34-19.8,67.18-39.25,95.91-65.03,57.21-51.31,91.79-122.32,150.36-172.31Z"/>
      <path class="cls-1" d="M861.15,572.93c-53.71,48.68-124.56,73.71-178.36,122.34-61.04,55.19-95.83,129.49-161.84,181.82-9.77,7.75-20.03,14.8-30.52,21.51h14.31c15.6-10.59,30.66-21.98,44.72-34.95,49.98-46.09,82.21-108.69,131.33-155.38,53.78-51.11,125.16-76.55,180.36-124.33,13.56-11.74,25.85-24.61,37.45-38.11v-12.75c-11.71,14.08-24.05,27.71-37.45,39.85Z"/>
      <path class="cls-1" d="M236.29,183.85c44.61-37.43,98.99-60.54,145.24-95.52,33.28-25.16,59.9-55.92,84.96-88.33h-10.58c-16.13,21-32.85,41.52-52.3,59.47-55.44,51.15-128.59,77.44-184.36,128.33-53.01,48.37-86.13,114.43-139.81,162.89-24.04,21.7-51.65,38.73-79.44,55.35v9.56c31.26-18.53,62.11-37.81,88.92-62.43,55.5-50.97,89.01-120.35,147.37-169.32Z"/>
      <path class="cls-1" d="M668.82,733.27c-53.51,58.16-82.32,116.61-148.07,165.33h13.41c5.99-4.57,11.8-9.23,17.31-13.96,57.98-49.72,92.31-119.87,148.82-170.86,46.21-41.7,105.18-65.93,154.77-102.97,15.86-11.85,30.18-25.22,43.54-39.52v-11.7c-66.72,73.98-162.08,100.1-229.78,173.68Z"/>
      <path class="cls-1" d="M226.3,169.87c48.13-39.75,107.04-63.85,155.33-103.41,23.32-19.11,44.66-42.63,63.94-66.46h-11c-5.65,7.16-11.43,14.2-17.49,21-65.18,73.15-156.02,99.05-222.83,166.78-37.9,38.43-65.21,86.34-101.84,125.93-27.2,29.4-58.98,52.05-92.42,72.79v9.44c24.85-14.89,49.16-30.72,70.94-49.76,59.53-52.05,94.11-125.73,155.36-176.31Z"/>
      <path class="cls-1" d="M217.31,154.88c41.95-34.13,92.09-56.31,135.65-88.12,26.42-19.3,49.57-41.95,70.37-66.76h-11.47l-9.75,12c-54.65,63.54-137.21,90.54-199.33,144.33-57.96,50.2-91.81,121.91-149.82,171.86-16.54,14.24-34.53,26.53-52.96,38.17v9.76c21.94-13.42,43.31-28.08,61.95-44.93,58.85-53.2,93.41-125.91,155.36-176.31Z"/>
      <path class="cls-1" d="M868.05,611.82c-50.83,39.75-111.34,64.92-160.23,107.5-54.18,47.19-86.79,112.95-138.86,161.84-6.39,6.01-13.21,11.83-20.25,17.44h12.26c15.98-13.66,30.9-28.32,43.94-43.43,35.86-41.56,63.09-88.92,104.37-126.4,57.09-51.84,134.19-78.78,189.32-132.3v-12.24c-9.5,9.74-19.57,19-30.55,27.59Z"/>
      <path class="cls-1" d="M195.79,150.35c43.7-38.91,99.25-62.17,146.18-96.58,21.66-15.88,40.83-34.13,58.47-53.77h-10.9c-16.29,17.41-33.62,33.29-53.57,47.79-44.03,32.02-94.3,54.54-136.65,89.12-61.53,50.24-95.99,122.44-154.36,175.31-13.94,12.63-29.22,23.63-44.97,33.96v9.88c18.35-11.77,36.11-24.54,51.96-38.84,54.8-49.44,88.51-117.61,143.83-166.86Z"/>
      <path class="cls-1" d="M718.26,732.76c-54.91,48.85-88.74,116.41-143.05,165.84h10.86c60.56-58.97,97.5-133.3,169.44-184.53,40.61-28.91,86.48-50.03,126.08-80.72,5.84-4.52,11.5-9.24,17-14.11v-10.49c-1.33,1.22-2.67,2.44-4.02,3.63-53.66,47.15-123.01,72.95-176.32,120.39Z"/>
      <path class="cls-1" d="M191.33,131.9c46.39-38.27,102.52-62.01,149.8-98.95,12.69-9.91,24.85-21.07,36.32-32.95h-11.86c-53.55,50.39-112.23,73.09-170.68,118.49-52.39,40.69-80.6,90.36-122.01,139.73-21.69,25.86-46.07,47.99-72.9,67.35v10.11c10.15-6.91,20.01-14.22,29.44-22.01,63.8-52.67,98.37-129.36,161.89-181.77Z"/>
      <path class="cls-1" d="M53.96,266.27c33.13-35.91,58.34-78.47,91.37-114.43C205.25,86.61,287.41,58,352.77,0h-11.9c-50.68,44.76-114.75,69.85-166.52,112.92C109.09,167.2,74.17,245.73,7.44,298.67c-2.45,1.94-4.94,3.85-7.44,5.73v10.2c19.47-14.37,37.59-30.59,53.96-48.33Z"/>
      <path class="cls-1" d="M702.77,772.21c-32.74,35.58-57.59,77.86-90.37,113.43-4.1,4.45-8.3,8.76-12.57,12.96h11.19c49.18-52.31,83.75-116.24,141.75-161.31,46.9-36.44,99.3-59.51,145.83-96.12v-10.95c-63.14,51.24-139.13,80.37-195.83,141.99Z"/>
      <path class="cls-1" d="M159.81,113.37c33.76-30.39,74.63-51,112.82-74.99,18.68-11.74,37.12-24.32,54.25-38.38h-13.06c-2.91,2.3-5.85,4.58-8.83,6.8-40.1,29.83-86.07,50.85-126.1,80.69C105.29,142.36,68.76,223.19,0,282.15v10.7c8.47-6.63,15.56-12.42,17.98-14.61,54.02-48.97,87.47-115.9,141.83-164.86Z"/>
      <path class="cls-1" d="M623.9,898.6h10.79c39.58-45.79,71.23-99.65,117.53-138.87,44.77-37.92,99.68-61.3,146.37-96.45v-10.36c-53.62,41.21-117.34,67.17-167.34,114.79-41.02,39.07-69.55,88.99-107.36,130.88Z"/>
      <path class="cls-1" d="M150.83,98.39C195.78,59.63,251.62,34.94,299.28,0h-14.36c-9.57,6.74-19.37,13.17-29.27,19.41-38.29,24.12-78.77,44.69-112.82,74.99C88,143.19,54.21,210.67,0,260.06v10.5c5.72-4.74,10.02-8.38,11-9.3,52.54-48.91,85.14-115.7,139.83-162.87Z"/>
      <path class="cls-1" d="M646.17,898.6h11.07c33.72-41.44,62.22-87.72,102.98-122.89,42.7-36.84,92.89-59.33,138.38-91.31v-10.17c-47.46,33.55-101.5,57.94-145.37,96.49-42.01,36.92-71.4,85.18-107.06,127.88Z"/>
      <path class="cls-1" d="M133.85,90.4C174.06,53.88,223.89,29.79,269.02,0h-14.77c-44.99,28.86-93.16,53.2-132.38,90.4C75.99,133.91,44.51,191.58,0,236.59v11.13c50.18-48.27,83.98-112.04,133.85-157.32Z"/>
      <path class="cls-1" d="M668.61,898.6h10.89c35.15-44.43,64.02-90.25,112.79-126.78,33.43-25.04,71.2-44.25,106.31-67.01v-9.71c-46.1,31.19-96.42,54.44-138.37,92.6-36.03,32.76-61.65,73.46-91.62,110.9Z"/>
      <path class="cls-1" d="M124.86,75.42C158.67,44.91,199.43,23.83,238.12,0h-16.42c-36.31,21.89-73.57,43.16-104.84,71.43C71.73,112.23,40.91,166.58,0,211.41v11.91c44.57-46.26,76.73-104.49,124.86-147.9Z"/>
      <path class="cls-1" d="M689.56,898.6h11.28c24.19-31.99,46.9-65.2,77.37-92.92,35.99-32.74,79.37-55.08,120.39-80.78v-9.32c-40.6,26.2-83.36,47.04-120.39,79.1-34.72,30.06-60.89,67.65-88.65,103.91Z"/>
      <path class="cls-1" d="M105.87,69.43C135.77,41.13,170.86,20.77,205.8,0h-16.43c-18.72,11.05-37.33,22.27-54.83,35.15C78.37,76.5,43.41,132.86,0,184.43v14.4c36.63-41.52,65.57-91.26,105.87-129.4Z"/>
      <path class="cls-1" d="M710.9,898.6h11.94c21.75-29.41,42.96-59.53,72.36-84.92,31.53-27.24,68.08-47.13,103.41-68.79v-9.4c-38.03,23.55-77.61,44.11-111.4,74.2-29.35,26.15-52.7,57.63-76.3,88.91Z"/>
      <path class="cls-1" d="M163.52,5.19c2.79-1.76,5.6-3.48,8.43-5.19h-15.33c-17.82,11.07-35.3,22.87-51.2,36C63.45,70.65,33.49,116.08,0,158.46v13.49c26.36-32.14,49.19-67.47,77.4-98.04,25.43-27.55,54.53-48.78,86.12-68.72Z"/>
      <path class="cls-1" d="M732.01,898.6h11.82c14.57-19.91,29.36-39.98,47.48-57.83,32.02-31.54,69.8-53.46,107.29-76.25v-9.58c-35.93,21.56-72.32,42.44-103.41,70.73-23.92,21.76-43.78,47.15-63.18,72.93Z"/>
      <path class="cls-1" d="M121.15,12.77c6.21-4.45,12.56-8.68,19-12.77h-14.75c-15.41,10.33-30.26,21.42-44.02,33.95C49.92,62.59,25.61,97.59,0,131.38v13.46c18.17-23.62,34.96-48.46,54.42-70.92,19.71-22.73,42.3-43.61,66.73-61.15Z"/>
      <path class="cls-1" d="M753.3,898.6h10.4c3.97-5.42,7.96-10.65,12.01-15.49,38.91-46.36,77.31-70.37,122.89-98.23v-10.18c-33.05,19.79-66.02,39.68-94.42,65.95-18.88,17.47-35.21,37.43-50.88,57.95Z"/>
      <path class="cls-1" d="M110.01,0h-14.27c-8.22,6.13-16.2,12.57-23.82,19.47C44.33,44.45,22.24,73.82,0,103.16v13.95c15.79-21.02,31-42.55,48.43-62.17C67.39,33.6,87.74,15.97,110.01,0Z"/>
      <path class="cls-1" d="M774.86,898.6h10.62c14.13-17.32,29.14-33.87,46.22-48.41,20.74-17.66,43.65-32.17,66.9-46.2v-9.7c-20.43,12.2-40.59,24.82-59.33,39.48-24.3,19.01-45.15,41.2-64.41,64.83Z"/>
      <path class="cls-1" d="M796.91,898.6h11.22c23.22-25.87,48.9-49.23,79.07-67.84l11.4-6.85v-9.93c-12.22,7.38-24.26,15.01-35.8,23.36-24.49,17.71-46.21,38.55-65.89,61.26Z"/>
      <path class="cls-1" d="M80.23,0h-11.69C42.4,22.61,21.37,47.63,0,75.48v14.46C24.9,57.62,49.63,26.06,80.23,0Z"/>
      <path class="cls-1" d="M819.76,898.6h11.31c7.79-8.2,15.94-16.06,24.59-23.44,13.53-11.54,28.03-21.72,42.93-31.33v-10.05c-9.09,5.84-17.97,11.83-26.36,17.98-19,13.92-36.45,29.69-52.48,46.83Z"/>
      <path class="cls-1" d="M54.44,0h-12.1C27.08,14.67,13.21,30.71,0,47.33v13.51C16.76,39.32,34.29,18.48,54.44,0Z"/>
      <path class="cls-1" d="M855.07,898.6c.35-.33.7-.67,1.06-1,13.26-12.26,27.6-23.15,42.47-33.3v-9.87c-19.38,13.37-37.8,27.97-54.73,44.17h11.21Z"/>
      <path class="cls-1" d="M881.88,898.6c5.46-4.54,11.03-8.94,16.72-13.2v-10.29c-10.19,7.39-20.05,15.21-29.5,23.49h12.78Z"/>
      <path class="cls-1" d="M18.33,0C12.01,6.61,5.92,13.43,0,20.43v13.06C9.5,21.91,19.32,10.66,29.8,0h-11.47Z"/>
      <path class="cls-1" d="M898.6,898.6v-2.26c-.97.75-1.94,1.5-2.9,2.26h2.9Z"/>
      <path class="cls-1" d="M0,0v7C2.05,4.65,4.11,2.31,6.2,0H0Z"/>
    </g>
  </g>
</svg>